Coordinates
version=1
nRows=18
nColumns=26
inDegrees=yes

Units are S.I. units (second, meters, Newtons, ...)
If the header above contains a line with 'inDegrees', this indicates whether rotational values are in degrees (yes) or radians (no).

endheader
time	pelvis_tilt	pelvis_list	pelvis_rotation	pelvis_tx	pelvis_ty	pelvis_tz	hip_flexion_r	hip_adduction_r	hip_rotation_r	knee_angle_r	knee_angle_r_beta	hip_flexion_l	hip_adduction_l	hip_rotation_l	knee_angle_l	knee_angle_l_beta	lumbar_extension	lumbar_bending	lumbar_rotation	ankle_angle_r	subtalar_angle_r	mtp_angle_r	ankle_angle_l	subtalar_angle_l	mtp_angle_l
      3.01333333	     -1.10521201	     -7.27025506	      5.53245079	      0.21223930	      0.89452887	     -0.30868445	     13.58735988	      8.58539717	     -9.23391673	     20.86348875	      0.36413657	     21.79258919	     -9.45104654	      2.28055090	     62.69513083	      1.09423646	     -8.76806756	     11.49844370	     -6.72696509	     12.42484538	     -0.14886147	      0.00000000	      3.41070991	    -17.44343271	      0.00000000
      3.02000000	     -0.95044023	     -7.25486496	      5.41628262	      0.22104893	      0.89596902	     -0.30818751	     12.27277413	      8.76030922	     -9.24718880	     19.89552855	      0.34724248	     22.43541700	     -9.30917698	      2.15419495	     61.61905210	      1.07545534	     -9.00842142	     11.47186874	     -6.30390244	     12.62108853	      0.41344004	      0.00000000	      4.45649011	    -17.43860330	      0.00000000
      3.02666667	     -0.91327532	     -7.22541868	      5.28191095	      0.22979298	      0.89714669	     -0.30777306	     11.11807521	      8.91122163	     -9.16076897	     18.98814965	      0.33140573	     23.16058249	     -9.11424702	      2.02742717	     60.37835910	      1.05380116	     -9.10818800	     11.44074433	     -5.90577004	     12.78106830	      0.84208278	      0.00000000	      5.16408690	    -17.50373778	      0.00000000
      3.03333333	     -1.04221781	     -7.26148461	      5.14616376	      0.23837670	      0.89781637	     -0.30746563	     10.35690144	      9.02578169	     -9.43015447	     18.50002892	      0.32288642	     24.08653929	     -8.96817306	      1.91459071	     59.06603981	      1.03089687	     -8.99687688	     11.52013792	     -5.51491773	     12.92645941	      0.94146432	      0.00000000	      5.42582784	    -17.53194289	      0.00000000
      3.04000000	     -0.73651120	     -7.13462343	      4.98786914	      0.24743097	      0.89933924	     -0.30689801	      8.65491570	      9.20207191	     -8.92069631	     17.08968041	      0.29827119	     24.30548842	     -8.75126850	      1.61195867	     57.42889039	      1.00232322	     -9.40289190	     11.32328644	     -5.05191084	     13.02953655	      1.64839027	      0.00000000	      6.20615196	    -17.55387363	      0.00000000
      3.04666667	     -0.41985238	     -7.04113126	      4.85199459	      0.25632788	      0.90064187	     -0.30653462	      7.13773944	      9.30710120	     -8.82504768	     16.07123842	      0.28049603	     24.50267457	     -8.55141167	      1.32284227	     55.67834002	      0.97177036	     -9.83507698	     11.23087371	     -4.60913847	     13.09484717	      2.05087574	      0.00000000	      6.57061500	    -17.45908468	      0.00000000
      3.05333333	     -0.34058274	     -6.95820544	      4.71574069	      0.26512325	      0.90144523	     -0.30623649	      5.95099548	      9.39164236	     -8.69072625	     15.18825964	      0.26508514	     24.94969195	     -8.30241520	      1.09854579	     53.83549448	      0.93960663	     -9.96767452	     11.13762205	     -4.20920691	     13.16561342	      2.33062954	      0.00000000	      6.68154312	    -17.38308454	      0.00000000
      3.06000000	     -0.14997122	     -6.86720244	      4.56175378	      0.27395501	      0.90229721	     -0.30609920	      4.63885025	      9.44917017	     -8.64488092	     14.28589522	      0.24933591	     25.20375814	     -8.05024527	      0.82771372	     51.84934704	      0.90494182	    -10.24670451	     11.10498552	     -3.75945800	     13.20430603	      2.55845796	      0.00000000	      6.61408409	    -17.28002448	      0.00000000
      3.06666667	      0.13428795	     -6.75980498	      4.44004484	      0.28285213	      0.90317648	     -0.30581377	      3.21706994	      9.52319303	     -8.54773317	     13.38405225	      0.23359578	     25.28208280	     -7.80836163	      0.54161118	     49.68702806	      0.86720224	    -10.62570627	     10.96439875	     -3.37565491	     13.18510607	      2.75119924	      0.00000000	      6.34015986	    -17.15928050	      0.00000000
      3.07333333	      0.06039173	     -6.71300433	      4.28625090	      0.29168241	      0.90336196	     -0.30568510	      2.27997090	      9.59782984	     -8.52581526	     12.65173207	      0.22081438	     25.77952633	     -7.56188368	      0.32888578	     47.53483734	      0.82963942	    -10.53872200	     10.94678279	     -3.05026155	     13.23141614	      2.91053857	      0.00000000	      6.11063372	    -16.92762554	      0.00000000
      3.08000000	      0.12291816	     -6.62893536	      4.11677295	      0.30054073	      0.90367643	     -0.30558148	      1.17103906	      9.63674063	     -8.54162603	     11.86493242	      0.20708214	     26.03040063	     -7.29142406	      0.09385995	     45.20591027	      0.78899198	    -10.65196230	     10.88291778	     -2.69076160	     13.23694312	      3.07971395	      0.00000000	      5.68266310	    -16.61433259	      0.00000000
      3.08666667	      0.52037517	     -6.50178230	      4.01062557	      0.30945794	      0.90438354	     -0.30550895	     -0.32144190	      9.65862138	     -8.56216638	     11.07081218	      0.19322212	     25.81332838	     -7.00018100	     -0.14612131	     42.67280443	      0.74478094	    -11.16084653	     10.77276083	     -2.38760999	     13.15203070	      3.22327561	      0.00000000	      4.95531538	    -16.33117329	      0.00000000
      3.09333333	      0.35685580	     -6.81252405	      3.88518539	      0.31810109	      0.90379254	     -0.30561833	     -0.90640881	     10.04143055	     -8.96836139	     10.77236716	      0.18801328	     26.47450511	     -7.09936631	     -0.17581480	     40.51851149	      0.70718143	    -10.97520369	     11.24539275	     -2.10598556	     13.28262154	      3.22089935	      0.00000000	      4.89492314	    -16.07758036	      0.00000000
      3.10000000	      0.88635406	     -6.38431543	      3.80779675	      0.32732633	      0.90470837	     -0.30565938	     -2.71074239	      9.75863841	     -8.86628587	      9.69365052	      0.16918612	     25.82869679	     -6.44918751	     -0.39020095	     37.55216513	      0.65540892	    -11.62625492	     10.73086578	     -1.82728678	     13.06827388	      3.49941017	      0.00000000	      3.69460350	    -15.42553564	      0.00000000
      3.10666667	      0.89528732	     -6.38115982	      3.68059152	      0.33626335	      0.90444060	     -0.30578919	     -3.64336658	      9.83907284	     -9.03042753	      9.15050136	      0.15970638	     25.99152439	     -6.20455956	     -0.40846189	     34.94246599	      0.60986108	    -11.62957522	     10.77509838	     -1.62599074	     13.00666990	      3.65012194	      0.00000000	      3.06777284	    -14.73694450	      0.00000000
      3.11333333	      0.75636422	     -6.69501256	      3.58534632	      0.34495236	      0.90361696	     -0.30617345	     -4.25904779	     10.21137542	     -9.36520660	      8.84770482	      0.15442158	     26.47998216	     -6.23879285	     -0.19218431	     32.58208795	      0.56866471	    -11.48064620	     11.28403395	     -1.31444552	     13.09660363	      3.70160738	      0.00000000	      2.91388770	    -14.28159497	      0.00000000
      3.12000000	      0.93073766	     -6.38846274	      3.47188194	      0.35426127	      0.90359164	     -0.30636895	     -5.48312352	      9.96031321	     -9.53370066	      8.15834215	      0.14238993	     26.17793013	     -5.68585747	     -0.21819154	     29.60667140	      0.51673390	    -11.63898357	     10.93252941	     -1.17272681	     12.90337864	      4.01656462	      0.00000000	      1.95463412	    -12.97982471	      0.00000000
      3.12666667	      1.27764918	     -6.34139092	      3.44431853	      0.36333766	      0.90349794	     -0.30667461	     -6.76220810	      9.98893340	     -9.82292204	      7.69398335	      0.13428534	     25.78519581	     -5.38710432	      0.00684176	     26.77792330	      0.46736293	    -12.05054843	     10.90930762	     -1.04570597	     12.83690912	      4.33296077	      0.00000000	      1.43677075	    -11.93669106	      0.00000000
